<?xml version="1.0" standalone="no"?>
<!DOCTYPE svg PUBLIC "-//W3C//DTD SVG 20010904//EN"
 "http://www.w3.org/TR/2001/REC-SVG-20010904/DTD/svg10.dtd">
<svg version="1.0" xmlns="http://www.w3.org/2000/svg"
 width="260.000000pt" height="260.000000pt" viewBox="0 0 260.000000 260.000000"
 preserveAspectRatio="xMidYMid meet">
<metadata>
Created by potrace 1.14, written by Peter Selinger 2001-2017
</metadata>
<g transform="translate(0.000000,260.000000) scale(0.100000,-0.100000)"
fill="#000000" stroke="none">
<path d="M1730 2134 c-15 -10 -120 -175 -270 -426 -135 -226 -248 -420 -252
-430 -5 -13 -2 -21 10 -25 33 -13 785 -8 809 5 18 10 333 524 508 828 38 66
48 64 -387 64 -338 0 -396 -3 -418 -16z"/>
<path d="M954 1928 c-59 -16 -93 -53 -177 -193 -46 -77 -184 -309 -307 -515
-122 -206 -239 -402 -260 -435 -20 -33 -48 -80 -62 -105 -14 -25 -42 -72 -62
-104 -40 -67 -45 -100 -17 -116 13 -6 164 -10 422 -10 486 0 460 -6 545 126
30 46 54 87 54 90 0 3 14 26 30 51 17 24 30 45 30 47 0 2 36 63 80 137 116
194 113 201 -79 203 -134 1 -161 9 -161 47 0 15 233 419 333 576 15 24 27 45
27 47 0 3 14 27 30 54 26 41 29 53 21 75 -12 31 5 29 -249 31 -95 0 -184 -2
-198 -6z"/>
<path d="M1518 1104 c-16 -9 -60 -71 -119 -171 -51 -87 -100 -169 -109 -183
-10 -14 -36 -56 -58 -95 -35 -58 -39 -72 -28 -83 18 -19 563 -20 607 -2 23 10
58 62 175 258 145 242 165 281 148 284 -5 0 -140 2 -300 3 -226 2 -297 -1
-316 -11z"/>
</g>
</svg>
