<?xml version="1.0" standalone="no"?>
<!DOCTYPE svg PUBLIC "-//W3C//DTD SVG 20010904//EN"
 "http://www.w3.org/TR/2001/REC-SVG-20010904/DTD/svg10.dtd">
<svg version="1.0" xmlns="http://www.w3.org/2000/svg"
 width="196.000000pt" height="196.000000pt" viewBox="0 0 196.000000 196.000000"
 preserveAspectRatio="xMidYMid meet">
<metadata>
Created by potrace 1.14, written by Peter Selinger 2001-2017
</metadata>
<g transform="translate(0.000000,196.000000) scale(0.100000,-0.100000)"
fill="#000000" stroke="none">
<path d="M1335 1622 c-39 -5 -58 -23 -98 -91 -18 -31 -36 -64 -42 -73 -5 -10
-64 -108 -130 -218 -66 -110 -130 -217 -142 -237 -14 -24 -19 -41 -13 -47 12
-12 577 -15 606 -3 16 7 74 88 92 129 2 4 73 123 157 265 94 156 151 261 145
267 -8 8 -508 15 -575 8z"/>
<path d="M680 1439 c-33 -19 -46 -38 -150 -215 -14 -24 -74 -125 -134 -226
-95 -160 -133 -223 -184 -303 -6 -11 -15 -27 -19 -35 -3 -8 -21 -39 -40 -68
-18 -29 -33 -54 -33 -57 0 -2 -18 -33 -40 -67 -39 -61 -50 -101 -31 -112 5 -3
146 -6 314 -7 338 -1 352 1 394 64 69 103 223 374 223 393 0 29 -12 33 -120
33 -96 1 -125 11 -117 41 2 10 70 127 149 261 181 304 168 280 157 301 -9 16
-27 18 -172 18 -144 0 -166 -3 -197 -21z"/>
<path d="M1127 828 c-30 -31 -227 -362 -227 -382 0 -14 26 -16 223 -16 179 0
227 3 243 15 18 12 57 73 191 300 7 11 16 27 20 35 4 8 13 21 20 28 6 7 10 19
7 27 -5 13 -42 15 -231 15 -219 0 -224 0 -246 -22z"/>
</g>
</svg>
