<svg width="108" height="108" viewBox="0 0 108 108" fill="none" xmlns="http://www.w3.org/2000/svg">
<rect width="108" height="108" rx="54" fill="url(#paint0_linear_147_1233)"/>
<rect x="11" y="11" width="86" height="86" rx="43" fill="white"/>
<path d="M63.0783 32.3334H44.9216C37.0349 32.3334 32.3333 37.035 32.3333 44.9217V63.0567C32.3333 70.965 37.0349 75.6667 44.9216 75.6667H63.0566C70.9433 75.6667 75.6449 70.965 75.6449 63.0784V44.9217C75.6666 37.035 70.9649 32.3334 63.0783 32.3334ZM52.9816 57.315L44.9216 65.375H49.6666C50.5549 65.375 51.2916 66.1117 51.2916 67C51.2916 67.8884 50.5549 68.625 49.6666 68.625H40.9999C40.7833 68.625 40.5666 68.5817 40.3716 68.495C39.9816 68.3217 39.6566 68.0184 39.4833 67.6067C39.4183 67.4117 39.3749 67.2167 39.3749 67V58.3334C39.3749 57.445 40.1116 56.7084 40.9999 56.7084C41.8883 56.7084 42.6249 57.445 42.6249 58.3334V63.0784L50.6849 55.0184C51.3133 54.39 52.3533 54.39 52.9816 55.0184C53.6099 55.6467 53.6099 56.6867 52.9816 57.315ZM68.6249 49.6667C68.6249 50.555 67.8883 51.2917 66.9999 51.2917C66.1116 51.2917 65.3749 50.555 65.3749 49.6667V44.9217L57.3149 52.9817C56.9899 53.3067 56.5783 53.4584 56.1666 53.4584C55.7549 53.4584 55.3433 53.3067 55.0183 52.9817C54.3899 52.3534 54.3899 51.3134 55.0183 50.685L63.0783 42.625H58.3333C57.4449 42.625 56.7083 41.8884 56.7083 41C56.7083 40.1117 57.4449 39.375 58.3333 39.375H66.9999C67.2166 39.375 67.4116 39.4184 67.6283 39.505C68.0183 39.6784 68.3433 39.9817 68.5166 40.3934C68.5816 40.5884 68.6249 40.7834 68.6249 41V49.6667Z" fill="url(#paint1_linear_147_1233)"/>
<rect x="11" y="11" width="86" height="86" rx="43" stroke="url(#paint2_linear_147_1233)" stroke-width="2"/>
<defs>
<linearGradient id="paint0_linear_147_1233" x1="6.3245e-07" y1="53.5046" x2="108" y2="53.5046" gradientUnits="userSpaceOnUse">
<stop stop-color="white"/>
<stop offset="1" stop-color="white" stop-opacity="0"/>
</linearGradient>
<linearGradient id="paint1_linear_147_1233" x1="75.645" y1="75.6667" x2="26.3713" y2="67.2544" gradientUnits="userSpaceOnUse">
<stop stop-color="#00796D"/>
<stop offset="1" stop-color="#38C682"/>
</linearGradient>
<linearGradient id="paint2_linear_147_1233" x1="98" y1="98" x2="-2.11054" y2="80.9" gradientUnits="userSpaceOnUse">
<stop stop-color="#00796D"/>
<stop offset="1" stop-color="#38C682"/>
</linearGradient>
</defs>
</svg>
