<svg width="108" height="108" viewBox="0 0 108 108" fill="none" xmlns="http://www.w3.org/2000/svg">
<rect width="108" height="108" rx="54" fill="url(#paint0_linear_147_1235)"/>
<rect x="11" y="11" width="86" height="86" rx="43" fill="white"/>
<path d="M53.8699 32.7884L48.6483 44.9434H43.4266C42.5599 44.9434 41.7149 45.0084 40.8916 45.1817L43.0583 39.9817L43.1449 39.7867L43.2749 39.44C43.3399 39.2884 43.3833 39.1584 43.4483 39.05C45.9616 33.2217 48.7783 31.4017 53.8699 32.7884Z" fill="url(#paint1_linear_147_1235)"/>
<path d="M68.5816 45.5284L68.5383 45.5067C67.2383 45.1384 65.9166 44.9434 64.5733 44.9434H51.0099L55.8849 33.6117L55.9499 33.46C56.2533 33.5684 56.5783 33.72 56.9033 33.8284L61.6916 35.8434C64.3566 36.9484 66.2199 38.0967 67.3683 39.4834C67.5633 39.7434 67.7366 39.9817 67.9099 40.2634C68.1049 40.5667 68.2566 40.87 68.3433 41.195C68.4299 41.39 68.4949 41.5634 68.5383 41.7584C68.8633 42.8634 68.8849 44.12 68.5816 45.5284Z" fill="url(#paint2_linear_147_1235)"/>
<path d="M55.1266 66.2634H55.6683C56.3183 66.2634 56.8599 65.6784 56.8599 64.9634C56.8599 64.0534 56.5999 63.9234 56.0366 63.7067L55.1266 63.3817V66.2634Z" fill="url(#paint3_linear_147_1235)"/>
<path d="M67.6283 48.6267C66.6533 48.345 65.6349 48.1934 64.5733 48.1934H43.4266C41.9533 48.1934 40.5666 48.475 39.2666 49.0384C35.4966 50.6634 32.8533 54.4117 32.8533 58.7667V62.9917C32.8533 63.5117 32.8966 64.01 32.9616 64.53C33.4383 71.42 37.1216 75.1034 44.0116 75.5584C44.5099 75.6234 45.0083 75.6667 45.5499 75.6667H62.4499C70.4666 75.6667 74.6916 71.8534 75.1033 64.27C75.1249 63.8584 75.1466 63.425 75.1466 62.9917V58.7667C75.1466 53.9784 71.9616 49.9484 67.6283 48.6267ZM56.7733 61.5834C57.7699 61.93 59.1133 62.6667 59.1133 64.9634C59.1133 66.935 57.5749 68.5167 55.6683 68.5167H55.1266V68.9934C55.1266 69.6217 54.6283 70.12 53.9999 70.12C53.3716 70.12 52.8733 69.6217 52.8733 68.9934V68.5167H52.6783C50.5983 68.5167 48.8866 66.7617 48.8866 64.595C48.8866 63.9667 49.3849 63.4684 50.0133 63.4684C50.6416 63.4684 51.1399 63.9667 51.1399 64.595C51.1399 65.505 51.8333 66.2634 52.6783 66.2634H52.8733V62.6017L51.2266 62.0167C50.2299 61.67 48.8866 60.9334 48.8866 58.6367C48.8866 56.665 50.4249 55.0834 52.3316 55.0834H52.8733V54.6067C52.8733 53.9784 53.3716 53.48 53.9999 53.48C54.6283 53.48 55.1266 53.9784 55.1266 54.6067V55.0834H55.3216C57.4016 55.0834 59.1133 56.8384 59.1133 59.005C59.1133 59.6334 58.6149 60.1317 57.9866 60.1317C57.3583 60.1317 56.8599 59.6334 56.8599 59.005C56.8599 58.095 56.1666 57.3367 55.3216 57.3367H55.1266V60.9984L56.7733 61.5834Z" fill="url(#paint4_linear_147_1235)"/>
<path d="M51.1399 58.6367C51.1399 59.5467 51.3999 59.6767 51.9633 59.8934L52.8733 60.2184V57.3367H52.3316C51.6599 57.3367 51.1399 57.9217 51.1399 58.6367Z" fill="url(#paint5_linear_147_1235)"/>
<rect x="11" y="11" width="86" height="86" rx="43" stroke="url(#paint6_linear_147_1235)" stroke-width="2"/>
<defs>
<linearGradient id="paint0_linear_147_1235" x1="6.3245e-07" y1="53.5046" x2="108" y2="53.5046" gradientUnits="userSpaceOnUse">
<stop stop-color="white"/>
<stop offset="1" stop-color="white" stop-opacity="0"/>
</linearGradient>
<linearGradient id="paint1_linear_147_1235" x1="75.1466" y1="75.6667" x2="26.9689" y2="67.6325" gradientUnits="userSpaceOnUse">
<stop stop-color="#00796D"/>
<stop offset="1" stop-color="#38C682"/>
</linearGradient>
<linearGradient id="paint2_linear_147_1235" x1="75.1466" y1="75.6667" x2="26.9689" y2="67.6325" gradientUnits="userSpaceOnUse">
<stop stop-color="#00796D"/>
<stop offset="1" stop-color="#38C682"/>
</linearGradient>
<linearGradient id="paint3_linear_147_1235" x1="75.1466" y1="75.6667" x2="26.9689" y2="67.6325" gradientUnits="userSpaceOnUse">
<stop stop-color="#00796D"/>
<stop offset="1" stop-color="#38C682"/>
</linearGradient>
<linearGradient id="paint4_linear_147_1235" x1="75.1466" y1="75.6667" x2="26.9689" y2="67.6325" gradientUnits="userSpaceOnUse">
<stop stop-color="#00796D"/>
<stop offset="1" stop-color="#38C682"/>
</linearGradient>
<linearGradient id="paint5_linear_147_1235" x1="75.1466" y1="75.6667" x2="26.9689" y2="67.6325" gradientUnits="userSpaceOnUse">
<stop stop-color="#00796D"/>
<stop offset="1" stop-color="#38C682"/>
</linearGradient>
<linearGradient id="paint6_linear_147_1235" x1="98" y1="98" x2="-2.11054" y2="80.9" gradientUnits="userSpaceOnUse">
<stop stop-color="#00796D"/>
<stop offset="1" stop-color="#38C682"/>
</linearGradient>
</defs>
</svg>
